<svg id="Layer_1" data-name="Layer 1" xmlns="http://www.w3.org/2000/svg" viewBox="0 0 301.9 341.92"><defs><style>.cls-1{fill:#fff;}.cls-2{fill:#f15a24;}.cls-3{fill:#39b54a;}</style></defs><title>api</title><path class="cls-1" d="M322.88,302.16c-18.56,7.52-28.09,28.72-29.71,48.68-1.37,16.94,2.64,35.85,16.24,46.05a44.23,44.23,0,0,0,15.08,7c21.53,5.82,44.3-.08,65.81-6,8.14-2.24,16.63-4.67,22.76-10.47s9.08-14.39,10.43-22.78c2.68-16.69-.19-34.45-9.21-48.74s-24.4-24.74-41.2-26.51c-6.86-.73-13.79-.06-20.66.61a93.3,93.3,0,0,0-14,2.09,47,47,0,0,0-21.49,12.22" transform="translate(-290.04 -204.31)"/><path d="M322.31,301.19c-22.83,9.75-31.87,37.58-30.36,60.71.77,11.76,4.4,23.92,12.88,32.47,10.14,10.24,25.78,13.19,39.67,13,16.21-.18,32.12-4.49,47.63-8.83,12.56-3.51,23.67-8.59,29-21.27,10.71-25.32,2.69-58.65-18.38-76.13-11.74-9.75-25.84-13.87-41-13.06-16.92.91-33,3.21-45.7,15.42-1.05,1,.54,2.6,1.59,1.59,11.38-11,25.16-13.28,40.35-14.5,13.1-1,25.38.53,36.72,7.52,23,14.17,32.31,42.79,27.21,68.58-1.24,6.28-3.42,12.61-7.55,17.61-4.69,5.66-11.45,8.59-18.3,10.73-13.14,4.12-26.88,7.71-40.57,9.34s-29,1.09-41.37-5.77c-11.29-6.23-17.24-18.05-19.28-30.4-4-23.91,4.53-54.85,28.54-65.09,1.32-.57.18-2.51-1.14-1.95Z" transform="translate(-290.04 -204.31)"/><path class="cls-1" d="M401.78,471l-.42-50c-.07-8.56-1-18.68-8.37-23a136.44,136.44,0,0,1-70.82,6.44,5,5,0,0,1-2.33.55h-.1c-8.18,9.85-11,23.41-13.38,36.2-2,11-4.07,22.3-1.85,33.25,1.93,9.53,7,18.1,11.92,26.47q5.26,8.93,10.55,17.84c2.95,5,6.06,10.16,10.87,13.42a27.33,27.33,0,0,0,10.44,4c18.26,3.37,38.17-6.28,46.83-22.7C401.86,500.54,401.9,485.4,401.78,471Z" transform="translate(-290.04 -204.31)"/><path d="M402.9,471c-.14-16.67-.18-33.35-.42-50-.07-5.34-.33-10.91-2.35-15.93-1.13-2.79-3.88-7.83-7.29-8.2-1.14-.12-3.29,1.15-4.39,1.52-1.71.57-3.42,1.1-5.15,1.6-4,1.17-8.12,2.15-12.24,2.94a136.06,136.06,0,0,1-23.83,2.39q-5.84.08-11.68-.36c-4.29-.32-8.84-1.68-13.08-1.62-4.42.05-6.22,4.13-8.16,7.65-6.62,12-8.82,26.61-10.78,40-2.14,14.68-.54,27.54,6.39,40.72,3.63,6.91,7.8,13.55,11.77,20.27,3.34,5.64,6.38,11.77,10.72,16.73,7.76,8.89,20.69,10.47,31.74,8.35a46.68,46.68,0,0,0,30.14-20c8.75-13.53,8.73-30.48,8.61-46a1.13,1.13,0,0,0-2.25,0c.11,13.5.24,27.81-5.72,40.26A43.51,43.51,0,0,1,370.41,533c-11.22,4-26.43,4.33-35.35-4.73-4.2-4.26-7-9.9-10-15-3.43-5.81-6.92-11.58-10.28-17.43-7.34-12.77-11.21-25.07-9.65-39.92,1.29-12.18,3.54-25.27,7.89-36.76a52.87,52.87,0,0,1,4.43-9.11c.58-.93,1.67-3.44,2.38-4a30.86,30.86,0,0,1,3.81-.28c6.06.24,12.08,1.56,18.19,1.72a138.24,138.24,0,0,0,36-3.75q5.25-1.26,10.38-2.94c4.44-1.45,6.76-1,9.06,3.32,3,5.63,2.94,12.54,3,18.76q.24,24,.4,48.1A1.13,1.13,0,0,0,402.9,471Z" transform="translate(-290.04 -204.31)"/><path class="cls-1" d="M319,306.37c-12.05-21.08-28.27-46.61-18.37-71.68,4-10.21,13.85-18.44,25-13.05,10.2,4.92,13.87,16.33,16.23,26.57q5.38,23.35,9.16,47.07" transform="translate(-290.04 -204.31)"/><path d="M320.28,305.62c-7.4-12.91-15.41-25.87-19.26-40.38-3.56-13.46-3.26-34.19,10.76-42,15.88-8.81,25.43,12.09,28.33,24,3.88,16,6.85,32.2,9.48,48.41.31,1.91,3.2,1.1,2.89-.79-2.59-16-5.57-32-9.32-47.74-2.41-10.12-6.27-21.33-16.12-26.46-9.61-5-19.54-.47-25.12,8.16-6.69,10.37-7,23.94-4.19,35.59,3.66,15.39,12.18,29.13,20,42.7a1.5,1.5,0,0,0,2.59-1.51Z" transform="translate(-290.04 -204.31)"/><path class="cls-1" d="M403.57,307.61c12.14-21.2,28.16-47.55,17.48-72.6-4.15-9.75-13-17.74-24.13-13.74-10.35,3.72-15,14.45-17.47,24.37-4.1,16.48-6.59,33.46-8.91,50.27" transform="translate(-290.04 -204.31)"/><path d="M404.86,308.37c12.62-22,29.27-49.64,16.92-75.38-4.23-8.81-12.82-16.13-23.11-13.79-10.89,2.48-16.81,12.86-19.77,22.79-5.18,17.29-7.34,35.69-9.8,53.52-.26,1.89,2.63,2.71,2.89.8,2.33-16.84,4.69-33.78,8.91-50.27,3.09-12.08,13.44-30.95,28.84-22.42,13.84,7.67,14.93,28,11.75,41.58-3.53,15-11.64,28.43-19.22,41.66a1.5,1.5,0,0,0,2.59,1.51Z" transform="translate(-290.04 -204.31)"/><path class="cls-1" d="M326.47,303.3c-9.29-17.93-22.05-47.71-8.24-64.85,2.85-2.72,7.26,1.59,9.34,6.16,6.38,14.89,8.23,31.48,12.05,46.87" transform="translate(-290.04 -204.31)"/><path d="M327.76,302.54c-7.92-15.37-17.31-35-13.28-52.72a26.32,26.32,0,0,1,2.23-6.27,8.38,8.38,0,0,1,1.29-2.23c.47-1.37,1.45-1.65,2.94-.82a2.37,2.37,0,0,1,3,1.23c4,3.46,5.48,12,6.81,16.89,3,11,4.72,22.22,7.4,33.26.46,1.88,3.35,1.08,2.89-.8-3.52-14.51-5.38-29.51-10.7-43.54-1.54-4.08-3.78-9.53-8.33-11.07-4.1-1.38-6.28,2.39-7.91,5.56-10,19.41,2.06,44.57,11.05,62,.89,1.71,3.48.2,2.59-1.52Z" transform="translate(-290.04 -204.31)"/><path class="cls-1" d="M398.34,302.45c5.71-15.53,12.25-34.14,7-51.55-1.83-6-5.51-11.57-10.77-9.05-5,2.39-7.07,10-8.2,16.36-2.06,11.6-3.09,23.6-4.19,35.42" transform="translate(-290.04 -204.31)"/><path d="M399.79,302.85c4.26-11.61,8.47-23.58,8.93-36.07.28-7.63-.45-23.08-9.18-26.56-8.19-3.27-12.56,8.32-13.91,14.11-3,12.8-3.75,26.24-5,39.3-.18,1.92,2.83,1.91,3,0,1-10.47,1.86-21,3.52-31.34.8-5,5.79-27.84,14-16.74,5.84,7.88,5.15,20.56,3.62,29.68s-4.72,18.08-7.93,26.83c-.66,1.81,2.24,2.59,2.9.79Z" transform="translate(-290.04 -204.31)"/><path d="M346.82,382.71a11.38,11.38,0,0,0,19.89-7.48c.05-1.93-2.95-1.93-3,0A8.36,8.36,0,0,1,349,380.59c-1.3-1.43-3.42.69-2.13,2.12Z" transform="translate(-290.04 -204.31)"/><path d="M359.73,368.23l-.14-4.06a1.52,1.52,0,0,0-1.89-1.45,4.22,4.22,0,0,0-2.64,6,1.53,1.53,0,0,0,2.05.53c1.9-.9,4.1-4.78,1.16-5.79-1.91-.65-3.95.79-4.54,2.59a3.11,3.11,0,0,0,.37,2.78,2.52,2.52,0,0,0,3.23.46,3.54,3.54,0,0,0,1.14-5.35,1.5,1.5,0,0,0-2.12,2.12c-.1-.11,0-.12-.05.06a3.59,3.59,0,0,1-.17.33.7.7,0,0,1-.23.2c-.11.06.19.07-.11,0l.9.69s-.2-.38-.15-.24.08-.09,0,0c.09-.13.11-.31.22-.44a2,2,0,0,1,.39-.31c.26-.1,0,.09.24,0-.08,0-.32-.14,0,.07l-.74-1.3a1.65,1.65,0,0,1-1.07,1.59l2,.54a1.18,1.18,0,0,1,.84-1.55l-1.9-1.45.14,4.06c.06,1.92,3.06,1.93,3,0Z" transform="translate(-290.04 -204.31)"/><path d="M340.71,342.32c-2.46-1.05-5.22,1-6.41,3-2.06,3.43-2.48,8.09,1.36,10.45,4.09,2.51,11.1.21,12.23-3.72s-3.05-8.06-8.2-8.77" transform="translate(-290.04 -204.31)"/><path d="M341.11,340.88c-5.17-1.56-9.19,3.75-9.76,8.37-.64,5.14,3.22,9,8.28,9.06,4,0,9.22-2.22,9.87-6.68.78-5.36-4.83-9-9.41-9.8-1.89-.33-2.7,2.56-.8,2.89,2.8.49,6.58,2.08,7.21,5.26s-2.88,4.83-5.43,5.22c-3,.46-6.39-.73-6.77-4.13-.35-3.13,2.19-8.45,6-7.3,1.85.56,2.65-2.34.8-2.89Z" transform="translate(-290.04 -204.31)"/><path d="M373.74,356.68c2.4,1.14,5.28-.85,6.57-2.77,2.26-3.35,2.95-8-.75-10.49-3.94-2.64-11.07-.59-12.43,3.3s2.58,8.15,7.68,9" transform="translate(-290.04 -204.31)"/><path d="M373.34,358.13c5.21,1.78,9.53-3.74,10.22-8.38.74-5-3-8.81-7.9-9-4.14-.16-9.39,2-10.19,6.49-1,5.27,4.45,9,8.94,10,1.89.4,2.69-2.49.8-2.89-2.77-.59-6.65-2.43-6.85-5.75-.17-3,3.36-4.49,5.85-4.77,3-.35,6.39,1,6.45,4.54.06,3.17-2.81,8.16-6.52,6.9-1.83-.63-2.62,2.27-.8,2.89Z" transform="translate(-290.04 -204.31)"/><path class="cls-1" d="M330.37,477.8a23.45,23.45,0,0,0-22.88-.52c-7.2,3.81-12.85,11.56-15,20.58-1.32,5.49-1.4,11.29-1.24,17,.15,5.26.52,10.69,2.61,15.31,2.92,6.45,8.71,10.32,14.53,12.66,5.63,2.27,11.84,3.43,17.49,1.21s9.84-7.26,13.93-12.2c5.95-7.16,12.3-15.41,12.38-25.49.06-7.27-3.21-13.93-6.64-19.94-3.14-5.51-7.29-11.37-12.88-11.58-3.31-.13-7,1.72-9.72-.6" transform="translate(-290.04 -204.31)"/><path d="M330.93,476.83c-12.9-7-27.38-2.08-35,10.05-4.42,7-5.75,15.06-5.83,23.21-.08,7.73-.08,16.51,4.23,23.26,7.17,11.25,25.4,17.28,36.68,9.08,6-4.35,10.93-10.89,15.16-16.92s7.55-13.18,7.12-20.83c-.47-8.43-5-17.17-9.94-23.85-1.87-2.52-4.1-5-7-6.25-4.08-1.78-9,1-12.78-1.32-1.23-.77-2.36,1.18-1.14,1.94,2.53,1.58,4.68,1.25,7.54,1,5.27-.51,8.5,1.85,11.53,5.93,5,6.7,9.7,15.7,9.62,24.24-.09,9.08-5.57,16.74-11.06,23.49s-11.53,14.39-21.1,14.26c-8.32-.1-18.09-4.79-22.66-11.88-4.82-7.49-4.39-18.34-3.75-26.89,1.4-18.56,17.74-37.13,37.32-26.56,1.27.69,2.41-1.26,1.13-1.94Z" transform="translate(-290.04 -204.31)"/><path class="cls-1" d="M413.58,478.93a29.2,29.2,0,0,0-24.75-.48,30.09,30.09,0,0,0-16.26,19c-1.42,5.08-1.5,10.44-1.33,15.71.15,4.86.56,9.87,2.82,14.15,3.16,6,9.43,9.53,15.72,11.7,6.09,2.09,12.81,3.16,18.92,1.11s10.65-6.71,15.08-11.27c6.43-6.62,13.3-14.24,13.39-23.55.07-6.72-3.47-12.87-7.18-18.43-3.4-5.09-7.89-10.5-13.94-10.7-3.58-.12-7.6,1.59-10.51-.55" transform="translate(-290.04 -204.31)"/><path d="M414.15,478c-13.08-6.05-28.48-2.81-37.37,8.74-4.74,6.17-6.52,13.52-6.71,21.19-.19,7.25-.12,15.62,4.15,21.83,7.42,10.82,26.21,16.15,37.94,10.18,6.95-3.54,12.77-10.11,17.72-16,4.44-5.27,8.35-11.47,8.42-18.58.08-8.3-5-16.49-10.05-22.73-2.12-2.63-4.65-5.19-7.82-6.52-4.64-1.95-10,.92-14.33-1.4-1.27-.68-2.41,1.26-1.13,1.94,2.95,1.57,5.47,1.11,8.73.84,5.11-.44,8.77,1.86,12,5.61,5.42,6.22,11,15.23,10.24,23.79s-7.28,15.34-13,21.23c-6.86,7.07-13.92,13-24.47,11.82-8.13-.89-18.2-4.61-22.75-11.9s-4.26-18.67-2.86-26.81A28.47,28.47,0,0,1,413,479.9c1.31.6,2.45-1.34,1.14-1.95Z" transform="translate(-290.04 -204.31)"/><path class="cls-1" d="M303.8,497.35c-2.74.33-4,3.64-4.05,6.39a8.06,8.06,0,0,0,1.12,4.95c1.71,2.42,5.58,2.74,7.9.9a7,7,0,0,0,1.82-8.07,9.41,9.41,0,0,0-6.76-5.24" transform="translate(-290.04 -204.31)"/><path d="M303.4,495.91c-4.06.85-5.35,5.48-5.13,9.13.26,4.43,3.41,7.78,8,7.14,4.12-.58,6.6-4.52,6.32-8.51-.33-4.59-4.17-7.79-8.39-8.84-1.88-.47-2.68,2.42-.8,2.89a8,8,0,0,1,5.75,4.39c1.05,2.52.22,6-2.62,7-6.11,2-7.35-9.22-2.36-10.27,1.89-.4,1.09-3.29-.8-2.89Z" transform="translate(-290.04 -204.31)"/><path class="cls-1" d="M322.29,485.31c-1.8-1.07-3.72,1.22-4.43,3.18-1,2.75-1.5,6.27.69,8.21s5.59,1,7.35-1.14,2.11-5.1,2-7.85c-.11-2-1.37-4.54-3.23-3.9" transform="translate(-290.04 -204.31)"/><path d="M322.69,483.86c-7.14-2.81-11.36,16.22-.69,15.3,4.59-.4,6.93-4.62,7.32-8.79.3-3.31-.57-8.84-5.09-8-1.89.35-1.09,3.24.8,2.89s1.34,5,1.19,5.84c-.37,2.09-1.41,4.25-3.6,4.9-7.2,2.16-3.44-10.32-.73-9.25,1.8.71,2.58-2.19.8-2.89Z" transform="translate(-290.04 -204.31)"/><path class="cls-1" d="M340.09,495.62c-2.37-.46-4.75,1.21-5.89,3.33a17.08,17.08,0,0,0-1.46,7,4.45,4.45,0,0,0,.22,2.18c.57,1.24,2.12,1.7,3.48,1.65A7.36,7.36,0,0,0,339.62,496" transform="translate(-290.04 -204.31)"/><path d="M340.09,494.12c-4.69-.46-7.67,3.66-8.43,7.84-.69,3.73-1.16,8.63,3.69,9.27a9,9,0,0,0,9.13-5.81,9.12,9.12,0,0,0-4.1-10.77c-1.65-1-3.16,1.59-1.52,2.59,4.61,2.83,3.74,11.08-2.42,11.06-4.47,0-1.85-11.72,3.65-11.18,1.92.19,1.9-2.81,0-3Z" transform="translate(-290.04 -204.31)"/><path class="cls-1" d="M334.18,515.1l-17.58-.45c-2,0-4.13-.07-5.86,1.05-3,1.93-3.64,6.63-2.43,10.21s3.84,6.29,6.37,8.87c2.71,2.75,6.36,5.7,9.68,4a9.81,9.81,0,0,0,3-3c4.72-6.28,9.75-14.07,7.68-21.94" transform="translate(-290.04 -204.31)"/><path d="M334.18,513.6c-5.86-.15-11.73-.43-17.58-.45-3.35,0-6.61.33-8.68,3.29-4.36,6.25.2,13.65,4.62,18.29,4.94,5.19,10.68,8.71,15.92,2.07s9.85-14.62,8.06-23.4c-.39-1.89-3.28-1.09-2.9.8,1.27,6.19-1.37,11.79-4.71,16.84-2,3.06-4.82,8.1-9.48,5.74-2.19-1.11-4.23-3.48-5.84-5.32-4.52-5.15-7.37-14.37,2.25-15.32,5.92-.59,12.39.31,18.34.46,1.93,0,1.93-3,0-3Z" transform="translate(-290.04 -204.31)"/><path class="cls-1" d="M383.18,496.58c-3,.3-4.28,3.36-4.38,5.9a6.56,6.56,0,0,0,1.22,4.57c1.85,2.24,6,2.53,8.55.83a5.86,5.86,0,0,0,2-7.45c-1.25-2.52-4.17-4.28-7.31-4.85" transform="translate(-290.04 -204.31)"/><path d="M382.79,495.13c-4.33.78-6,5.48-5.38,9.41.62,4.18,4.41,6.34,8.43,5.85a7.5,7.5,0,0,0,6.74-8.13c-.46-4.55-4.87-7.27-9-8.13-1.89-.39-2.69,2.5-.8,2.9,2.48.52,5.29,1.69,6.41,4.15a4.43,4.43,0,0,1-3.05,6.11c-2.71.69-5.45-.49-5.85-3.44-.34-2.45.58-5.35,3.25-5.83,1.9-.34,1.1-3.23-.79-2.89Z" transform="translate(-290.04 -204.31)"/><path class="cls-1" d="M403.19,485.45c-1.94-1-4,1.13-4.79,2.94-1.08,2.54-1.63,5.79.74,7.58s6.06.92,8-1.05,2.28-4.71,2.12-7.26c-.12-1.81-1.48-4.19-3.49-3.59" transform="translate(-290.04 -204.31)"/><path d="M403.59,484c-7.64-2.7-11.64,14.92-1,14.39,4.34-.22,7.39-3.54,8-7.72.51-3.61-.62-8.79-5.28-8.05-1.9.3-1.1,3.19.79,2.89,2.35-.37,1.56,5,1.27,5.94a5.35,5.35,0,0,1-4.77,3.94c-6.44.45-3-9.63.17-8.5,1.83.65,2.61-2.25.8-2.89Z" transform="translate(-290.04 -204.31)"/><path class="cls-1" d="M422.45,495a6.59,6.59,0,0,0-6.37,3.08c-1.23,2-1.42,4.26-1.58,6.48a3.58,3.58,0,0,0,.23,2c.62,1.14,2.3,1.57,3.77,1.51,3.47-.12,6.68-2.39,7.46-5.28s-1-6.11-4-7.51" transform="translate(-290.04 -204.31)"/><path d="M422.45,493.48c-4.42-.41-7.9,2.77-8.91,6.91s-1.12,8.68,4,9.14c3.87.35,8.24-1.95,9.63-5.68,1.49-4-.92-8-4.48-9.87-1.71-.88-3.23,1.7-1.52,2.6,2.14,1.1,4,3.23,3.33,5.81s-3.57,4.11-6,4.18c-1.72.06-2.38-.37-2.5-2a11.72,11.72,0,0,1,.53-3.76,5.47,5.47,0,0,1,5.92-4.3c1.92.18,1.91-2.82,0-3Z" transform="translate(-290.04 -204.31)"/><path d="M416.05,511.48c-5.7-.13-11.41-.27-17.11-.38-3.68-.08-7.91-.41-10.68,2.47-5.07,5.27-1,12.45,3.31,16.56,4.71,4.53,11.37,9.63,17.23,4,6-5.75,11.68-14.22,9.66-22.8-.44-1.88-3.33-1.09-2.89.79,1.59,6.76-2.67,12.65-6.82,17.55-2.63,3.1-6.21,4.85-10,2.43a32.75,32.75,0,0,1-6.16-5.24c-1.8-1.94-3.88-4.63-3.62-7.47.45-4.91,5.13-5.43,9-5.36,6,.1,12,.26,18.07.4,1.93,0,1.93-3,0-3Z" transform="translate(-290.04 -204.31)"/><path class="cls-1" d="M337.21,407.63c-5.08-.92-11.5-1.26-14.16,3.17-1.19,2-1.23,4.42-1.15,6.73A98.43,98.43,0,0,0,338.55,469c1.89,2.8,4.34,5.75,7.71,6,3.92.31,7-3.11,9.43-6.21a17.82,17.82,0,0,0,3.62-6.27,15.33,15.33,0,0,0,.12-5.49c-1.62-14.64-8.35-28.16-15-41.32a15.93,15.93,0,0,0-3.26-4.88c-2.55-2.32-6.28-2.76-9.25-4.5" transform="translate(-290.04 -204.31)"/><path d="M337.61,406.18c-4.42-.73-9.87-1.42-13.7,1.49s-3.66,8-3.39,12.42a100.69,100.69,0,0,0,10.67,39.32c3.92,7.73,11.65,23.13,22,14.33,3.67-3.13,7.57-8.07,7.91-13,.49-6.95-2-14.69-4.27-21.16a187.71,187.71,0,0,0-9.47-21.43c-1.45-2.91-2.75-6.27-5.24-8.47-2.64-2.34-6.34-3-9.41-4.62-1.71-.88-3.23,1.71-1.51,2.59,2.38,1.23,5.22,1.84,7.46,3.26,3.18,2,4.5,5.53,6.1,8.75,2.85,5.71,5.65,11.45,7.95,17.41,2.46,6.35,4.67,13.17,5.24,20a13.11,13.11,0,0,1-2.65,9.84c-2.72,3.73-6.76,8.64-11.92,5.27-4.73-3.09-7.93-10.82-10.34-15.77a97,97,0,0,1-6.62-18.09,95,95,0,0,1-2.93-19c-.17-3.42-.47-7.63,2.95-9.64,2.93-1.72,7.25-1.05,10.39-.53,1.89.32,2.7-2.58.8-2.89Z" transform="translate(-290.04 -204.31)"/><path class="cls-1" d="M398.14,411.26c-3.33-3.95-8.05-8.31-12.92-6.61-2.18.77-3.77,2.62-5.19,4.45a98.5,98.5,0,0,0-20,50.22c-.33,3.36-.33,7.2,2.09,9.55,2.82,2.74,7.39,2.09,11.22,1.24,2.38-.52,4.83-1.07,6.79-2.51a15.44,15.44,0,0,0,3.61-4.14c8.1-12.31,11.56-27,14.87-41.37a16.28,16.28,0,0,0,.61-5.83c-.49-3.42-3.08-6.13-4.25-9.37" transform="translate(-290.04 -204.31)"/><path d="M399.2,410.2c-3.17-3.64-7.59-8.12-12.93-7.33-5.1.76-8.3,6.29-10.95,10.17a99.68,99.68,0,0,0-15.75,38.49c-.86,4.83-2.42,11.07-.33,15.77s6.91,5.41,11.48,4.81c5.39-.72,10.18-2.24,13.48-6.75C388,460.14,390.74,454,393,448a194.06,194.06,0,0,0,6.65-23.81c.68-3,1.53-6,.83-9-.75-3.26-2.94-6-4.24-9-.75-1.77-3.33-.25-2.59,1.51,1.26,2.94,3.49,5.64,3.95,8.84s-.85,7-1.62,10.19c-1.37,5.82-2.85,11.62-4.75,17.28a81.33,81.33,0,0,1-7.89,17.32c-2.14,3.43-4.26,5.75-8.28,6.89-2.8.79-8.53,2.48-11.07.29-5.21-4.5-1.81-15.32-.49-21a97,97,0,0,1,5.94-17.71,98.35,98.35,0,0,1,9-15.87c1.68-2.42,3.65-5.94,6.35-7.34,5-2.58,9.47,2.49,12.35,5.79,1.27,1.46,3.39-.67,2.12-2.12Z" transform="translate(-290.04 -204.31)"/><path class="cls-2" d="M404.25,419.26a246.79,246.79,0,0,1-40.78,30.62c-3.31,2-6.67,3.89-9.82,6.12a8.72,8.72,0,0,0-2.63,2.57,5.93,5.93,0,0,0,.37,5.88c2.51,4.15,8.4,5.14,13,3.52s8.14-5.21,11.53-8.69l17.34-17.76c5-5.15,10.19-10.49,12.81-17.2.56-1.44,1-3.11.31-4.5s-3-2-3.76-.64" transform="translate(-290.04 -204.31)"/><path d="M403.19,418.2c-13.77,12.67-28.79,23.23-44.74,32.93-4.45,2.7-11.2,5.9-9.16,12.31,1.57,4.92,7,7.06,11.8,6.71,6.58-.5,11.49-5.37,15.86-9.81,6.59-6.68,13.2-13.35,19.66-20.15C401,435.57,407,429.4,408,422.82c.62-4.08-2.81-7.58-6.5-4.7-1.52,1.18.62,3.29,2.13,2.12l.44,4.85a24,24,0,0,1-1.13,2.2,37,37,0,0,1-2.21,3.47,64.86,64.86,0,0,1-5.68,6.7c-3.79,4-7.71,7.93-11.57,11.88-4,4.11-7.88,8.48-12.15,12.32-3.86,3.47-13.11,9.22-17.58,3.11-1.64-1-1.72-2.43-.22-4.27-.26-1.77.25-3,1.54-3.67a18.36,18.36,0,0,1,3.46-2.25c2.13-1.33,4.31-2.58,6.45-3.88q7.42-4.49,14.51-9.48a256,256,0,0,0,25.8-20.9c1.42-1.31-.7-3.43-2.12-2.12Z" transform="translate(-290.04 -204.31)"/><path class="cls-3" d="M349.48,461.78c-5.87,2.82-12.79-.35-19.3,0a17.81,17.81,0,0,0-12.28,6.09,1.33,1.33,0,0,0-.37.65c-.11.75.89,1.1,1.64,1.17,10.66,1,22.54,1.59,30.81-5.2" transform="translate(-290.04 -204.31)"/><path d="M349.08,460.33c-6.8,2.68-13.68-.89-20.65.16-4.45.68-9.89,3.21-12.2,7.29a1.55,1.55,0,0,0,0,1.52c1.1,1.85,2.45,1.8,4.47,2.05a71.34,71.34,0,0,0,11.69.39c6.66-.3,13-1.84,18.35-5.94,1.51-1.15,0-3.76-1.51-2.59a27.48,27.48,0,0,1-14.52,5.38,61.24,61.24,0,0,1-7.78.16c-1.16,0-6,.24-6.56-.67-.89-1.37,6-4.08,7.12-4.36,3-.76,6.07-.37,9.08,0,4.6.58,8.89,1.22,13.31-.51,1.78-.7,1-3.6-.8-2.9Z" transform="translate(-290.04 -204.31)"/><path class="cls-3" d="M350.45,466.07a48.14,48.14,0,0,1-15.75,24.67c-1.64,1.36-3.58,3.3-2.75,5.26a3.23,3.23,0,0,0,3.56,1.59,8.77,8.77,0,0,0,3.68-2c4.59-3.53,8.94-7.62,11.55-12.78s3.27-11.6.52-16.7" transform="translate(-290.04 -204.31)"/><path d="M349,465.67c-2.72,9.7-8,17.29-15.36,24-3,2.72-5.46,9,.81,9.45,2.75.21,5.05-1.81,7.05-3.42A43.25,43.25,0,0,0,350,487c4.51-6.43,5.95-14.33,2.55-21.57-.81-1.75-3.4-.22-2.59,1.51,3.25,6.92.88,14.45-3.74,20.12a42.79,42.79,0,0,1-5.62,5.56c-1.74,1.48-2.54,3.43-4.57,1.34-1.79-1.83-.79-1.61.92-3.14a50.83,50.83,0,0,0,14.95-24.31,1.51,1.51,0,0,0-2.9-.8Z" transform="translate(-290.04 -204.31)"/><path d="M466.73,285.09a106.06,106.06,0,0,0,34.91-23.94c1.34-1.39-.78-3.51-2.12-2.13a104,104,0,0,1-34.31,23.48c-1.77.75-.24,3.33,1.52,2.59Z" transform="translate(-290.04 -204.31)"/><path d="M514,237.6l.34-16.13-3,.4a34.31,34.31,0,0,0,13,16.2,1.51,1.51,0,0,0,2.2-.9,116.64,116.64,0,0,0,.86-23.55c-.13-1.92-3.13-1.93-3,0a112.38,112.38,0,0,1-.75,22.75l2.2-.89a30.71,30.71,0,0,1-11.62-14.4,1.51,1.51,0,0,0-2.95.39L511,237.6c0,1.93,3,1.93,3,0Z" transform="translate(-290.04 -204.31)"/><path d="M541.06,209.2c-10.4-.21-10.34,21.45-1.08,23.38,6.38,1.33,8.82-6.66,9.75-11.36,1-5.37-1.6-13.49-8.59-11.11-1.82.62-1,3.51.8,2.89,10.69-3.64,2.46,25.16-4.05,14.17-2.06-3.47-3-15.1,3.17-15,1.93,0,1.93-3,0-3Z" transform="translate(-290.04 -204.31)"/><path d="M556,230.1l.33-21.71-2.94.4a47,47,0,0,0,6,11.13,1.52,1.52,0,0,0,2.74-.36l4.07-13.39H563.3a54,54,0,0,0,12.86,23.37c1.32,1.41,3.44-.71,2.13-2.12a50.62,50.62,0,0,1-12.1-22,1.51,1.51,0,0,0-2.89,0l-4.07,13.38,2.74-.36A44.2,44.2,0,0,1,556.29,208a1.51,1.51,0,0,0-2.95.4L553,230.1a1.5,1.5,0,0,0,3,0Z" transform="translate(-290.04 -204.31)"/><path d="M526,272.1l.27-17.31-2.56,1.07a58.73,58.73,0,0,1,8.9,14,1.51,1.51,0,0,0,2.74-.36,75.16,75.16,0,0,0,1-21.38c-.18-1.9-3.18-1.92-3,0a72.47,72.47,0,0,1-.94,20.58l2.74-.36a62,62,0,0,0-9.37-14.61,1.52,1.52,0,0,0-2.56,1.06L523,272.1c0,1.93,3,1.93,3,0Z" transform="translate(-290.04 -204.31)"/><path d="M546.64,247.63a15.59,15.59,0,0,0-5.49,14.58c.72,4.07,4.48,9.45,9.31,8,4.51-1.38,5.39-8.56,5.63-12.5.28-4.75-1-9.16-5.66-11.1-1.78-.75-2.55,2.15-.8,2.89,3.12,1.31,3.6,4.7,3.49,7.69-.08,2.2-.53,6.76-2,8.58-2.49,3.18-5.22.53-6.28-1.54a10.63,10.63,0,0,1-.91-5.78,12.88,12.88,0,0,1,4.79-8.67c1.48-1.24-.65-3.35-2.12-2.12Z" transform="translate(-290.04 -204.31)"/><path d="M560.18,267.91a72.71,72.71,0,0,0,2-20.52L560,248.68l6.1,3.31a1.53,1.53,0,0,0,2.05-.54,9.24,9.24,0,0,0,1.69-5.85l-2.79.76,8.75,14.52c1,1.65,3.6.15,2.6-1.51l-8.76-14.53a1.52,1.52,0,0,0-2.8.76,5.34,5.34,0,0,1-1.28,4.34l2.06-.54-6.1-3.31a1.52,1.52,0,0,0-2.26,1.3,69.65,69.65,0,0,1-1.94,19.72c-.45,1.88,2.44,2.68,2.9.8Z" transform="translate(-290.04 -204.31)"/><path d="M534.54,305.42l3.53-22-2.94-.4a38.08,38.08,0,0,0,9.77,21.54,1.51,1.51,0,0,0,2.36-.3,40.39,40.39,0,0,0,4.19-23.14c-.21-1.89-3.21-1.92-3,0a37.59,37.59,0,0,1-3.78,21.62l2.35-.3A34.69,34.69,0,0,1,538.13,283c-.18-1.5-2.66-2.22-3-.39l-3.54,22c-.3,1.89,2.59,2.7,2.9.8Z" transform="translate(-290.04 -204.31)"/><path d="M559.24,280.32c-2.58,5.37-5.37,14.08-2.66,19.91,2.14,4.59,8.14,3.44,10.64-.16,2.85-4.08,4.16-12.33,1.92-16.88-1.9-3.86-7.65-5.68-10.6-2-1.19,1.5.92,3.64,2.12,2.12,1.6-2,4.38-1.14,5.64.81.93,1.44.91,3.47.81,5.1-.18,2.74-.65,6.73-2.31,9-1.94,2.63-5.55,2.31-5.94-1.34a23.05,23.05,0,0,1,0-4.07,29.59,29.59,0,0,1,3-11c.83-1.73-1.75-3.25-2.59-1.51Z" transform="translate(-290.04 -204.31)"/><path d="M574,299.1l.22-20.22-2.79.76a16.71,16.71,0,0,0,6.65,6.58,1.51,1.51,0,0,0,2.2-.89,44.21,44.21,0,0,0,2-10.3l-2.79.76a70.36,70.36,0,0,1,9.5,20.75,1.5,1.5,0,0,0,2.89-.8,72.59,72.59,0,0,0-9.8-21.46,1.51,1.51,0,0,0-2.8.75,40.87,40.87,0,0,1-1.85,9.5l2.21-.9a13.89,13.89,0,0,1-5.58-5.51,1.52,1.52,0,0,0-2.8.76L571,299.1a1.5,1.5,0,0,0,3,0Z" transform="translate(-290.04 -204.31)"/></svg>